<svg width="240" height="136" viewBox="0 0 240 136" fill="none" xmlns="http://www.w3.org/2000/svg">
<path d="M91.0069 15.3677V6.30078H81.7425V15.3677H72.478V24.6322H81.7425V33.6991H91.0069V24.6322H100.271V15.3677H91.0069ZM91.0069 24.4347H81.7425V15.5666H91.0069V24.4347Z" fill="#0166FF"/>
<path d="M120.195 19.5715H129.041V27.0821C127.252 28.8211 124.53 29.7284 121.354 29.7284C115.179 29.7284 111.298 26.1748 111.298 20.4536C111.298 14.7325 115.179 11.1536 120.976 11.1536C124.202 11.1536 126.647 12.1365 128.361 13.7243L126.117 16.2447C124.908 15.1861 123.068 14.5056 121.001 14.5056C117.397 14.5056 115.003 16.7991 115.003 20.4536C115.003 24.2341 117.498 26.452 121.48 26.452C123.068 26.452 124.504 26.1748 125.689 25.2927V22.6967H120.195V19.5715Z" fill="black"/>
<path d="M145.052 22.4951C145.052 22.7219 145.052 23.2512 145.027 23.5284H134.341C134.719 25.5699 136.13 26.7292 138.398 26.7292C140.011 26.7292 141.448 26.1244 142.38 24.965L144.573 26.8301C143.313 28.5691 141.297 29.6528 138.146 29.6528C133.534 29.6528 130.812 26.8301 130.812 22.4447C130.812 18.0845 133.761 15.2365 137.97 15.2365C142.708 15.2365 145.052 18.2609 145.052 22.4951ZM137.97 18.1349C136.206 18.1349 134.794 19.017 134.366 21.0081H141.65C141.448 19.4959 140.364 18.1349 137.97 18.1349Z" fill="black"/>
<path d="M147.32 29.3756V10.2715H150.798V29.3756H147.32Z" fill="black"/>
<path d="M160.011 29.678C155.978 29.678 153.357 26.8805 153.357 22.4699C153.357 18.0593 156.004 15.2869 159.86 15.2869C161.271 15.2869 162.96 15.6902 164.094 16.7991V10.2715H167.522V29.3756H164.144V28.0398C163.061 29.3504 161.347 29.678 160.011 29.678ZM160.767 26.5528C162.078 26.5528 163.439 26.0236 164.144 24.7382V20.1764C163.439 19.0422 162.027 18.4122 160.691 18.4122C158.499 18.4122 156.936 19.8739 156.936 22.4699C156.936 25.0154 158.448 26.5528 160.767 26.5528Z" fill="black"/>
<circle cx="221" cy="100" r="12" fill="#E5E7EB"/>
<path d="M219.735 99.4014H220.638C221.08 99.4014 221.444 99.3285 221.731 99.1826C222.023 99.0322 222.24 98.8294 222.381 98.5742C222.527 98.3145 222.6 98.0228 222.6 97.6992C222.6 97.3164 222.536 96.9951 222.408 96.7354C222.281 96.4756 222.089 96.2796 221.834 96.1475C221.579 96.0153 221.255 95.9492 220.863 95.9492C220.508 95.9492 220.193 96.0199 219.92 96.1611C219.651 96.2979 219.439 96.4938 219.284 96.749C219.134 97.0042 219.059 97.305 219.059 97.6514H217.794C217.794 97.1455 217.922 96.6852 218.177 96.2705C218.432 95.8558 218.79 95.5254 219.25 95.2793C219.715 95.0332 220.253 94.9102 220.863 94.9102C221.465 94.9102 221.991 95.0173 222.442 95.2314C222.894 95.4411 223.244 95.7555 223.495 96.1748C223.746 96.5895 223.871 97.1068 223.871 97.7266C223.871 97.9772 223.812 98.2461 223.693 98.5332C223.579 98.8158 223.399 99.0801 223.153 99.3262C222.912 99.5723 222.597 99.7751 222.21 99.9346C221.823 100.09 221.358 100.167 220.815 100.167H219.735V99.4014ZM219.735 100.44V99.6816H220.815C221.449 99.6816 221.973 99.7568 222.388 99.9072C222.802 100.058 223.128 100.258 223.365 100.509C223.607 100.759 223.775 101.035 223.871 101.336C223.971 101.632 224.021 101.928 224.021 102.225C224.021 102.689 223.942 103.102 223.782 103.462C223.627 103.822 223.406 104.127 223.119 104.378C222.837 104.629 222.504 104.818 222.121 104.945C221.738 105.073 221.321 105.137 220.87 105.137C220.437 105.137 220.029 105.075 219.646 104.952C219.268 104.829 218.933 104.651 218.642 104.419C218.35 104.182 218.122 103.893 217.958 103.551C217.794 103.204 217.712 102.81 217.712 102.368H218.977C218.977 102.715 219.052 103.018 219.202 103.277C219.357 103.537 219.576 103.74 219.858 103.886C220.146 104.027 220.483 104.098 220.87 104.098C221.257 104.098 221.59 104.032 221.868 103.899C222.151 103.763 222.367 103.558 222.518 103.284C222.673 103.011 222.75 102.667 222.75 102.252C222.75 101.837 222.663 101.498 222.49 101.233C222.317 100.965 222.071 100.766 221.752 100.639C221.438 100.507 221.066 100.44 220.638 100.44H219.735Z" fill="#0F172A"/>
<path d="M204.86 121.047V131H203.541V121.047H204.86ZM209.03 125.524V126.604H204.573V125.524H209.03ZM209.707 121.047V122.127H204.573V121.047H209.707ZM212.462 123.604V131H211.19V123.604H212.462ZM211.095 121.642C211.095 121.437 211.156 121.263 211.279 121.122C211.407 120.981 211.594 120.91 211.84 120.91C212.081 120.91 212.266 120.981 212.394 121.122C212.526 121.263 212.592 121.437 212.592 121.642C212.592 121.838 212.526 122.006 212.394 122.147C212.266 122.284 212.081 122.353 211.84 122.353C211.594 122.353 211.407 122.284 211.279 122.147C211.156 122.006 211.095 121.838 211.095 121.642ZM215.757 125.183V131H214.492V123.604H215.688L215.757 125.183ZM215.456 127.021L214.93 127.001C214.934 126.495 215.009 126.028 215.155 125.6C215.301 125.167 215.506 124.791 215.771 124.472C216.035 124.153 216.349 123.907 216.714 123.733C217.083 123.556 217.491 123.467 217.938 123.467C218.302 123.467 218.63 123.517 218.922 123.617C219.214 123.713 219.462 123.868 219.667 124.082C219.877 124.296 220.036 124.574 220.146 124.916C220.255 125.253 220.31 125.666 220.31 126.153V131H219.038V126.14C219.038 125.752 218.981 125.442 218.867 125.21C218.753 124.973 218.587 124.802 218.368 124.697C218.149 124.588 217.881 124.533 217.562 124.533C217.247 124.533 216.96 124.599 216.7 124.731C216.445 124.864 216.224 125.046 216.037 125.278C215.855 125.511 215.711 125.777 215.606 126.078C215.506 126.374 215.456 126.689 215.456 127.021ZM223.604 123.604V131H222.333V123.604H223.604ZM222.237 121.642C222.237 121.437 222.299 121.263 222.422 121.122C222.549 120.981 222.736 120.91 222.982 120.91C223.224 120.91 223.409 120.981 223.536 121.122C223.668 121.263 223.734 121.437 223.734 121.642C223.734 121.838 223.668 122.006 223.536 122.147C223.409 122.284 223.224 122.353 222.982 122.353C222.736 122.353 222.549 122.284 222.422 122.147C222.299 122.006 222.237 121.838 222.237 121.642ZM229.941 129.038C229.941 128.856 229.9 128.687 229.818 128.532C229.741 128.373 229.579 128.229 229.333 128.102C229.091 127.969 228.727 127.855 228.239 127.76C227.829 127.673 227.458 127.571 227.125 127.452C226.797 127.334 226.517 127.19 226.284 127.021C226.056 126.853 225.881 126.655 225.758 126.427C225.635 126.199 225.573 125.932 225.573 125.627C225.573 125.335 225.637 125.06 225.765 124.8C225.897 124.54 226.081 124.31 226.318 124.109C226.56 123.909 226.849 123.752 227.187 123.638C227.524 123.524 227.9 123.467 228.314 123.467C228.907 123.467 229.413 123.572 229.832 123.781C230.251 123.991 230.573 124.271 230.796 124.622C231.019 124.968 231.131 125.354 231.131 125.777H229.866C229.866 125.572 229.805 125.374 229.682 125.183C229.563 124.987 229.388 124.825 229.155 124.697C228.927 124.57 228.647 124.506 228.314 124.506C227.964 124.506 227.679 124.561 227.46 124.67C227.246 124.775 227.089 124.909 226.988 125.073C226.893 125.237 226.845 125.41 226.845 125.593C226.845 125.729 226.868 125.853 226.913 125.962C226.963 126.067 227.05 126.165 227.173 126.256C227.296 126.342 227.469 126.424 227.692 126.502C227.916 126.579 228.201 126.657 228.547 126.734C229.153 126.871 229.652 127.035 230.044 127.227C230.436 127.418 230.728 127.653 230.919 127.931C231.11 128.209 231.206 128.546 231.206 128.942C231.206 129.266 231.138 129.562 231.001 129.831C230.869 130.1 230.675 130.332 230.42 130.528C230.169 130.72 229.868 130.87 229.518 130.979C229.171 131.084 228.782 131.137 228.349 131.137C227.697 131.137 227.146 131.021 226.694 130.788C226.243 130.556 225.901 130.255 225.669 129.886C225.437 129.517 225.32 129.127 225.32 128.717H226.592C226.61 129.063 226.71 129.339 226.893 129.544C227.075 129.744 227.298 129.888 227.562 129.975C227.827 130.057 228.089 130.098 228.349 130.098C228.695 130.098 228.984 130.052 229.217 129.961C229.454 129.87 229.634 129.744 229.757 129.585C229.88 129.425 229.941 129.243 229.941 129.038ZM234.132 120.5V131H232.867V120.5H234.132ZM233.831 127.021L233.305 127.001C233.309 126.495 233.384 126.028 233.53 125.6C233.676 125.167 233.881 124.791 234.146 124.472C234.41 124.153 234.724 123.907 235.089 123.733C235.458 123.556 235.866 123.467 236.312 123.467C236.677 123.467 237.005 123.517 237.297 123.617C237.589 123.713 237.837 123.868 238.042 124.082C238.252 124.296 238.411 124.574 238.521 124.916C238.63 125.253 238.685 125.666 238.685 126.153V131H237.413V126.14C237.413 125.752 237.356 125.442 237.242 125.21C237.128 124.973 236.962 124.802 236.743 124.697C236.524 124.588 236.256 124.533 235.937 124.533C235.622 124.533 235.335 124.599 235.075 124.731C234.82 124.864 234.599 125.046 234.412 125.278C234.23 125.511 234.086 125.777 233.981 126.078C233.881 126.374 233.831 126.689 233.831 127.021Z" fill="#0F172A"/>
<path d="M139 100L217 100" stroke="#E5E7EB" stroke-width="4"/>
<circle cx="129" cy="100" r="12" fill="#E5E7EB"/>
<path d="M132.411 103.961V105H125.896V104.091L129.157 100.461C129.558 100.014 129.868 99.6361 130.087 99.3262C130.31 99.0117 130.465 98.7314 130.552 98.4854C130.643 98.2347 130.688 97.9795 130.688 97.7197C130.688 97.3916 130.62 97.0954 130.483 96.8311C130.351 96.5622 130.155 96.348 129.896 96.1885C129.636 96.029 129.321 95.9492 128.952 95.9492C128.51 95.9492 128.141 96.0358 127.845 96.209C127.553 96.3776 127.334 96.6146 127.188 96.9199C127.043 97.2253 126.97 97.5762 126.97 97.9727H125.705C125.705 97.4121 125.828 96.8994 126.074 96.4346C126.32 95.9697 126.685 95.6006 127.168 95.3271C127.651 95.0492 128.246 94.9102 128.952 94.9102C129.581 94.9102 130.119 95.0218 130.565 95.2451C131.012 95.4639 131.354 95.7738 131.591 96.1748C131.832 96.5713 131.953 97.0361 131.953 97.5693C131.953 97.861 131.903 98.1572 131.803 98.458C131.707 98.7542 131.573 99.0505 131.399 99.3467C131.231 99.6429 131.033 99.9346 130.805 100.222C130.581 100.509 130.342 100.791 130.087 101.069L127.421 103.961H132.411Z" fill="#0F172A"/>
<path d="M108.779 126.345H106.257L106.243 125.285H108.533C108.911 125.285 109.242 125.221 109.524 125.094C109.807 124.966 110.026 124.784 110.181 124.547C110.34 124.305 110.42 124.018 110.42 123.686C110.42 123.321 110.349 123.025 110.208 122.797C110.071 122.564 109.859 122.396 109.572 122.291C109.29 122.182 108.93 122.127 108.492 122.127H106.551V131H105.231V121.047H108.492C109.003 121.047 109.458 121.099 109.859 121.204C110.26 121.304 110.6 121.464 110.878 121.683C111.16 121.897 111.375 122.17 111.521 122.503C111.666 122.836 111.739 123.234 111.739 123.699C111.739 124.109 111.634 124.481 111.425 124.813C111.215 125.142 110.924 125.41 110.55 125.62C110.181 125.83 109.748 125.964 109.251 126.023L108.779 126.345ZM108.718 131H105.737L106.482 129.927H108.718C109.137 129.927 109.493 129.854 109.784 129.708C110.08 129.562 110.306 129.357 110.461 129.093C110.616 128.824 110.693 128.507 110.693 128.143C110.693 127.773 110.627 127.454 110.495 127.186C110.363 126.917 110.156 126.709 109.873 126.563C109.59 126.418 109.226 126.345 108.779 126.345H106.899L106.913 125.285H109.483L109.764 125.668C110.242 125.709 110.648 125.846 110.98 126.078C111.313 126.306 111.566 126.598 111.739 126.953C111.917 127.309 112.006 127.701 112.006 128.129C112.006 128.749 111.869 129.273 111.596 129.701C111.327 130.125 110.946 130.449 110.454 130.672C109.962 130.891 109.383 131 108.718 131ZM118.124 129.735V125.928C118.124 125.636 118.065 125.383 117.946 125.169C117.832 124.95 117.659 124.782 117.427 124.663C117.194 124.545 116.907 124.485 116.565 124.485C116.246 124.485 115.966 124.54 115.725 124.649C115.488 124.759 115.301 124.902 115.164 125.08C115.032 125.258 114.966 125.449 114.966 125.654H113.701C113.701 125.39 113.77 125.128 113.906 124.868C114.043 124.608 114.239 124.374 114.494 124.164C114.754 123.95 115.064 123.781 115.424 123.658C115.788 123.531 116.194 123.467 116.641 123.467C117.178 123.467 117.652 123.558 118.062 123.74C118.477 123.923 118.801 124.198 119.033 124.567C119.27 124.932 119.389 125.39 119.389 125.941V129.387C119.389 129.633 119.409 129.895 119.45 130.173C119.496 130.451 119.562 130.69 119.648 130.891V131H118.329C118.265 130.854 118.215 130.66 118.179 130.419C118.142 130.173 118.124 129.945 118.124 129.735ZM118.343 126.516L118.356 127.404H117.078C116.718 127.404 116.397 127.434 116.114 127.493C115.832 127.548 115.595 127.632 115.403 127.746C115.212 127.86 115.066 128.004 114.966 128.177C114.866 128.345 114.815 128.544 114.815 128.771C114.815 129.004 114.868 129.216 114.973 129.407C115.077 129.599 115.235 129.751 115.444 129.865C115.659 129.975 115.921 130.029 116.23 130.029C116.618 130.029 116.96 129.947 117.256 129.783C117.552 129.619 117.787 129.419 117.96 129.182C118.138 128.945 118.233 128.715 118.247 128.491L118.787 129.1C118.755 129.291 118.669 129.503 118.527 129.735C118.386 129.968 118.197 130.191 117.96 130.405C117.728 130.615 117.45 130.79 117.126 130.932C116.807 131.068 116.447 131.137 116.046 131.137C115.545 131.137 115.105 131.039 114.727 130.843C114.353 130.647 114.061 130.385 113.852 130.057C113.646 129.724 113.544 129.353 113.544 128.942C113.544 128.546 113.621 128.197 113.776 127.896C113.931 127.591 114.155 127.338 114.446 127.138C114.738 126.933 115.089 126.778 115.499 126.673C115.909 126.568 116.367 126.516 116.873 126.516H118.343ZM122.752 120.5V131H121.48V120.5H122.752ZM129.144 129.735V125.928C129.144 125.636 129.084 125.383 128.966 125.169C128.852 124.95 128.679 124.782 128.446 124.663C128.214 124.545 127.927 124.485 127.585 124.485C127.266 124.485 126.986 124.54 126.744 124.649C126.507 124.759 126.32 124.902 126.184 125.08C126.051 125.258 125.985 125.449 125.985 125.654H124.721C124.721 125.39 124.789 125.128 124.926 124.868C125.062 124.608 125.258 124.374 125.514 124.164C125.773 123.95 126.083 123.781 126.443 123.658C126.808 123.531 127.214 123.467 127.66 123.467C128.198 123.467 128.672 123.558 129.082 123.74C129.497 123.923 129.82 124.198 130.053 124.567C130.29 124.932 130.408 125.39 130.408 125.941V129.387C130.408 129.633 130.429 129.895 130.47 130.173C130.515 130.451 130.581 130.69 130.668 130.891V131H129.349C129.285 130.854 129.235 130.66 129.198 130.419C129.162 130.173 129.144 129.945 129.144 129.735ZM129.362 126.516L129.376 127.404H128.098C127.738 127.404 127.416 127.434 127.134 127.493C126.851 127.548 126.614 127.632 126.423 127.746C126.231 127.86 126.086 128.004 125.985 128.177C125.885 128.345 125.835 128.544 125.835 128.771C125.835 129.004 125.887 129.216 125.992 129.407C126.097 129.599 126.254 129.751 126.464 129.865C126.678 129.975 126.94 130.029 127.25 130.029C127.637 130.029 127.979 129.947 128.275 129.783C128.572 129.619 128.806 129.419 128.979 129.182C129.157 128.945 129.253 128.715 129.267 128.491L129.807 129.1C129.775 129.291 129.688 129.503 129.547 129.735C129.406 129.968 129.216 130.191 128.979 130.405C128.747 130.615 128.469 130.79 128.146 130.932C127.826 131.068 127.466 131.137 127.065 131.137C126.564 131.137 126.124 131.039 125.746 130.843C125.372 130.647 125.081 130.385 124.871 130.057C124.666 129.724 124.563 129.353 124.563 128.942C124.563 128.546 124.641 128.197 124.796 127.896C124.951 127.591 125.174 127.338 125.466 127.138C125.757 126.933 126.108 126.778 126.519 126.673C126.929 126.568 127.387 126.516 127.893 126.516H129.362ZM133.662 125.183V131H132.397V123.604H133.594L133.662 125.183ZM133.361 127.021L132.835 127.001C132.84 126.495 132.915 126.028 133.061 125.6C133.206 125.167 133.411 124.791 133.676 124.472C133.94 124.153 134.255 123.907 134.619 123.733C134.988 123.556 135.396 123.467 135.843 123.467C136.207 123.467 136.535 123.517 136.827 123.617C137.119 123.713 137.367 123.868 137.572 124.082C137.782 124.296 137.941 124.574 138.051 124.916C138.16 125.253 138.215 125.666 138.215 126.153V131H136.943V126.14C136.943 125.752 136.886 125.442 136.772 125.21C136.659 124.973 136.492 124.802 136.273 124.697C136.055 124.588 135.786 124.533 135.467 124.533C135.152 124.533 134.865 124.599 134.605 124.731C134.35 124.864 134.129 125.046 133.942 125.278C133.76 125.511 133.617 125.777 133.512 126.078C133.411 126.374 133.361 126.689 133.361 127.021ZM143.096 130.098C143.396 130.098 143.674 130.036 143.93 129.913C144.185 129.79 144.395 129.621 144.559 129.407C144.723 129.188 144.816 128.94 144.839 128.662H146.042C146.019 129.1 145.871 129.507 145.598 129.886C145.329 130.259 144.976 130.562 144.538 130.795C144.101 131.023 143.62 131.137 143.096 131.137C142.54 131.137 142.054 131.039 141.64 130.843C141.229 130.647 140.888 130.378 140.614 130.036C140.345 129.694 140.143 129.302 140.006 128.86C139.874 128.414 139.808 127.942 139.808 127.445V127.158C139.808 126.661 139.874 126.192 140.006 125.75C140.143 125.303 140.345 124.909 140.614 124.567C140.888 124.226 141.229 123.957 141.64 123.761C142.054 123.565 142.54 123.467 143.096 123.467C143.674 123.467 144.18 123.585 144.613 123.822C145.046 124.055 145.386 124.374 145.632 124.779C145.882 125.18 146.019 125.636 146.042 126.146H144.839C144.816 125.841 144.729 125.565 144.579 125.319C144.433 125.073 144.233 124.877 143.978 124.731C143.727 124.581 143.433 124.506 143.096 124.506C142.708 124.506 142.382 124.583 142.118 124.738C141.858 124.889 141.651 125.094 141.496 125.354C141.346 125.609 141.236 125.894 141.168 126.208C141.104 126.518 141.072 126.835 141.072 127.158V127.445C141.072 127.769 141.104 128.088 141.168 128.402C141.232 128.717 141.339 129.002 141.489 129.257C141.644 129.512 141.852 129.717 142.111 129.872C142.376 130.022 142.704 130.098 143.096 130.098ZM150.533 131.137C150.018 131.137 149.551 131.05 149.132 130.877C148.717 130.699 148.359 130.451 148.059 130.132C147.762 129.813 147.535 129.435 147.375 128.997C147.215 128.56 147.136 128.081 147.136 127.562V127.274C147.136 126.673 147.225 126.137 147.402 125.668C147.58 125.194 147.822 124.793 148.127 124.465C148.432 124.137 148.779 123.888 149.166 123.72C149.553 123.551 149.954 123.467 150.369 123.467C150.898 123.467 151.354 123.558 151.736 123.74C152.124 123.923 152.44 124.178 152.687 124.506C152.933 124.829 153.115 125.212 153.233 125.654C153.352 126.092 153.411 126.57 153.411 127.09V127.657H147.888V126.625H152.146V126.529C152.128 126.201 152.06 125.882 151.941 125.572C151.827 125.262 151.645 125.007 151.395 124.807C151.144 124.606 150.802 124.506 150.369 124.506C150.082 124.506 149.818 124.567 149.576 124.69C149.335 124.809 149.127 124.987 148.954 125.224C148.781 125.461 148.646 125.75 148.551 126.092C148.455 126.434 148.407 126.828 148.407 127.274V127.562C148.407 127.912 148.455 128.243 148.551 128.553C148.651 128.858 148.795 129.127 148.981 129.359C149.173 129.592 149.403 129.774 149.672 129.906C149.945 130.038 150.255 130.104 150.602 130.104C151.048 130.104 151.426 130.013 151.736 129.831C152.046 129.649 152.317 129.405 152.55 129.1L153.315 129.708C153.156 129.95 152.953 130.18 152.707 130.398C152.461 130.617 152.158 130.795 151.798 130.932C151.442 131.068 151.021 131.137 150.533 131.137Z" fill="#0F172A"/>
<path d="M34 100L126 100" stroke="#E5E7EB" stroke-width="4"/>
<circle cx="28" cy="100" r="12" fill="#0166FF"/>
<path d="M29.0459 94.9922V105H27.7812V96.5713L25.2314 97.501V96.3594L28.8477 94.9922H29.0459Z" fill="white"/>
<path d="M7.50586 127.835H8.81836C8.75 128.464 8.56999 129.027 8.27832 129.523C7.98665 130.02 7.57422 130.414 7.04102 130.706C6.50781 130.993 5.84245 131.137 5.04492 131.137C4.46159 131.137 3.93066 131.027 3.45215 130.809C2.97819 130.59 2.57031 130.28 2.22852 129.879C1.88672 129.473 1.6224 128.988 1.43555 128.423C1.25326 127.853 1.16211 127.22 1.16211 126.522V125.531C1.16211 124.834 1.25326 124.203 1.43555 123.638C1.6224 123.068 1.889 122.58 2.23535 122.175C2.58626 121.769 3.00781 121.457 3.5 121.238C3.99219 121.02 4.5459 120.91 5.16113 120.91C5.91309 120.91 6.54883 121.051 7.06836 121.334C7.58789 121.617 7.99121 122.008 8.27832 122.51C8.56999 123.007 8.75 123.583 8.81836 124.239H7.50586C7.44206 123.774 7.32357 123.376 7.15039 123.043C6.97721 122.706 6.73112 122.446 6.41211 122.264C6.0931 122.081 5.67611 121.99 5.16113 121.99C4.71908 121.99 4.32943 122.075 3.99219 122.243C3.65951 122.412 3.37923 122.651 3.15137 122.961C2.92806 123.271 2.75944 123.642 2.64551 124.075C2.53158 124.508 2.47461 124.989 2.47461 125.518V126.522C2.47461 127.01 2.52474 127.468 2.625 127.896C2.72982 128.325 2.88704 128.701 3.09668 129.024C3.30632 129.348 3.57292 129.603 3.89648 129.79C4.22005 129.972 4.60286 130.063 5.04492 130.063C5.60547 130.063 6.05208 129.975 6.38477 129.797C6.71745 129.619 6.9681 129.364 7.13672 129.031C7.3099 128.699 7.43294 128.3 7.50586 127.835ZM14.9502 129.291V123.604H16.2217V131H15.0117L14.9502 129.291ZM15.1895 127.732L15.7158 127.719C15.7158 128.211 15.6634 128.667 15.5586 129.086C15.4583 129.501 15.2943 129.861 15.0664 130.166C14.8385 130.471 14.54 130.711 14.1709 130.884C13.8018 131.052 13.3529 131.137 12.8242 131.137C12.4642 131.137 12.1338 131.084 11.833 130.979C11.5368 130.875 11.2816 130.713 11.0674 130.494C10.8532 130.275 10.6868 129.991 10.5684 129.64C10.4544 129.289 10.3975 128.867 10.3975 128.375V123.604H11.6621V128.389C11.6621 128.721 11.6986 128.997 11.7715 129.216C11.849 129.43 11.9515 129.601 12.0791 129.729C12.2113 129.852 12.3571 129.938 12.5166 129.988C12.6807 130.038 12.8493 130.063 13.0225 130.063C13.5602 130.063 13.9863 129.961 14.3008 129.756C14.6152 129.546 14.8408 129.266 14.9775 128.915C15.1188 128.56 15.1895 128.165 15.1895 127.732ZM19.4141 124.766V131H18.1494V123.604H19.3799L19.4141 124.766ZM21.7246 123.562L21.7178 124.738C21.613 124.715 21.5127 124.702 21.417 124.697C21.3258 124.688 21.221 124.684 21.1025 124.684C20.8109 124.684 20.5534 124.729 20.3301 124.82C20.1068 124.911 19.9176 125.039 19.7627 125.203C19.6077 125.367 19.4847 125.563 19.3936 125.791C19.307 126.014 19.25 126.26 19.2227 126.529L18.8672 126.734C18.8672 126.288 18.9105 125.868 18.9971 125.477C19.0882 125.085 19.2272 124.738 19.4141 124.438C19.6009 124.132 19.8379 123.895 20.125 123.727C20.4167 123.553 20.763 123.467 21.1641 123.467C21.2552 123.467 21.36 123.478 21.4785 123.501C21.597 123.519 21.679 123.54 21.7246 123.562ZM24.1582 124.766V131H22.8936V123.604H24.124L24.1582 124.766ZM26.4688 123.562L26.4619 124.738C26.3571 124.715 26.2568 124.702 26.1611 124.697C26.07 124.688 25.9652 124.684 25.8467 124.684C25.555 124.684 25.2975 124.729 25.0742 124.82C24.8509 124.911 24.6618 125.039 24.5068 125.203C24.3519 125.367 24.2288 125.563 24.1377 125.791C24.0511 126.014 23.9941 126.26 23.9668 126.529L23.6113 126.734C23.6113 126.288 23.6546 125.868 23.7412 125.477C23.8324 125.085 23.9714 124.738 24.1582 124.438C24.3451 124.132 24.582 123.895 24.8691 123.727C25.1608 123.553 25.5072 123.467 25.9082 123.467C25.9993 123.467 26.1042 123.478 26.2227 123.501C26.3411 123.519 26.4232 123.54 26.4688 123.562ZM30.5703 131.137C30.0553 131.137 29.5882 131.05 29.1689 130.877C28.7542 130.699 28.3965 130.451 28.0957 130.132C27.7995 129.813 27.5716 129.435 27.4121 128.997C27.2526 128.56 27.1729 128.081 27.1729 127.562V127.274C27.1729 126.673 27.2617 126.137 27.4395 125.668C27.6172 125.194 27.8587 124.793 28.1641 124.465C28.4694 124.137 28.8158 123.888 29.2031 123.72C29.5905 123.551 29.9915 123.467 30.4062 123.467C30.9349 123.467 31.3906 123.558 31.7734 123.74C32.1608 123.923 32.4775 124.178 32.7236 124.506C32.9697 124.829 33.152 125.212 33.2705 125.654C33.389 126.092 33.4482 126.57 33.4482 127.09V127.657H27.9248V126.625H32.1836V126.529C32.1654 126.201 32.097 125.882 31.9785 125.572C31.8646 125.262 31.6823 125.007 31.4316 124.807C31.181 124.606 30.8392 124.506 30.4062 124.506C30.1191 124.506 29.8548 124.567 29.6133 124.69C29.3717 124.809 29.1644 124.987 28.9912 125.224C28.818 125.461 28.6836 125.75 28.5879 126.092C28.4922 126.434 28.4443 126.828 28.4443 127.274V127.562C28.4443 127.912 28.4922 128.243 28.5879 128.553C28.6882 128.858 28.8317 129.127 29.0186 129.359C29.21 129.592 29.4401 129.774 29.709 129.906C29.9824 130.038 30.2923 130.104 30.6387 130.104C31.0853 130.104 31.4635 130.013 31.7734 129.831C32.0833 129.649 32.3545 129.405 32.5869 129.1L33.3525 129.708C33.193 129.95 32.9902 130.18 32.7441 130.398C32.498 130.617 32.195 130.795 31.835 130.932C31.4795 131.068 31.0579 131.137 30.5703 131.137ZM36.1895 125.183V131H34.9248V123.604H36.1211L36.1895 125.183ZM35.8887 127.021L35.3623 127.001C35.3669 126.495 35.4421 126.028 35.5879 125.6C35.7337 125.167 35.9388 124.791 36.2031 124.472C36.4674 124.153 36.7819 123.907 37.1465 123.733C37.5156 123.556 37.9235 123.467 38.3701 123.467C38.7347 123.467 39.0628 123.517 39.3545 123.617C39.6462 123.713 39.8945 123.868 40.0996 124.082C40.3092 124.296 40.4688 124.574 40.5781 124.916C40.6875 125.253 40.7422 125.666 40.7422 126.153V131H39.4707V126.14C39.4707 125.752 39.4137 125.442 39.2998 125.21C39.1859 124.973 39.0195 124.802 38.8008 124.697C38.582 124.588 38.3132 124.533 37.9941 124.533C37.6797 124.533 37.3926 124.599 37.1328 124.731C36.8776 124.864 36.6566 125.046 36.4697 125.278C36.2874 125.511 36.1439 125.777 36.0391 126.078C35.9388 126.374 35.8887 126.689 35.8887 127.021ZM45.623 130.098C45.9238 130.098 46.2018 130.036 46.457 129.913C46.7122 129.79 46.9219 129.621 47.0859 129.407C47.25 129.188 47.3434 128.94 47.3662 128.662H48.5693C48.5465 129.1 48.3984 129.507 48.125 129.886C47.8561 130.259 47.5029 130.562 47.0654 130.795C46.6279 131.023 46.1471 131.137 45.623 131.137C45.0671 131.137 44.5817 131.039 44.167 130.843C43.7568 130.647 43.415 130.378 43.1416 130.036C42.8727 129.694 42.6699 129.302 42.5332 128.86C42.401 128.414 42.335 127.942 42.335 127.445V127.158C42.335 126.661 42.401 126.192 42.5332 125.75C42.6699 125.303 42.8727 124.909 43.1416 124.567C43.415 124.226 43.7568 123.957 44.167 123.761C44.5817 123.565 45.0671 123.467 45.623 123.467C46.2018 123.467 46.7077 123.585 47.1406 123.822C47.5736 124.055 47.9131 124.374 48.1592 124.779C48.4098 125.18 48.5465 125.636 48.5693 126.146H47.3662C47.3434 125.841 47.2568 125.565 47.1064 125.319C46.9606 125.073 46.7601 124.877 46.5049 124.731C46.2542 124.581 45.9603 124.506 45.623 124.506C45.2357 124.506 44.9098 124.583 44.6455 124.738C44.3857 124.889 44.1784 125.094 44.0234 125.354C43.873 125.609 43.7637 125.894 43.6953 126.208C43.6315 126.518 43.5996 126.835 43.5996 127.158V127.445C43.5996 127.769 43.6315 128.088 43.6953 128.402C43.7591 128.717 43.8662 129.002 44.0166 129.257C44.1715 129.512 44.3789 129.717 44.6387 129.872C44.903 130.022 45.2311 130.098 45.623 130.098ZM52.0693 130.234L54.127 123.604H55.4805L52.5137 132.142C52.4453 132.324 52.3542 132.52 52.2402 132.729C52.1309 132.944 51.9896 133.146 51.8164 133.338C51.6432 133.529 51.4336 133.684 51.1875 133.803C50.946 133.926 50.6566 133.987 50.3193 133.987C50.2191 133.987 50.0915 133.974 49.9365 133.946C49.7816 133.919 49.6722 133.896 49.6084 133.878L49.6016 132.853C49.638 132.857 49.695 132.862 49.7725 132.866C49.8545 132.875 49.9115 132.88 49.9434 132.88C50.2305 132.88 50.4743 132.841 50.6748 132.764C50.8753 132.691 51.0439 132.565 51.1807 132.388C51.3219 132.215 51.4427 131.975 51.543 131.67L52.0693 130.234ZM50.5586 123.604L52.4795 129.346L52.8076 130.679L51.8984 131.144L49.1777 123.604H50.5586Z" fill="#0F172A"/>
</svg>
