<svg width="43" height="16" viewBox="0 0 43 16" fill="none" xmlns="http://www.w3.org/2000/svg">
<g id="Geld">
<path d="M7.32289 7.60974H13.9265V13.2162C12.5907 14.5144 10.5588 15.1917 8.18832 15.1917C3.57895 15.1917 0.681641 12.5389 0.681641 8.26822C0.681641 3.9975 3.57895 1.32596 7.90611 1.32596C10.3143 1.32596 12.1392 2.05969 13.4185 3.24496L11.7441 5.12633C10.8411 4.33615 9.46765 3.82818 7.92492 3.82818C5.23456 3.82818 3.44726 5.54023 3.44726 8.26822C3.44726 11.0903 5.30982 12.7459 8.28238 12.7459C9.46765 12.7459 10.54 12.5389 11.4243 11.8804V9.94263H7.32289V7.60974Z" fill="white"/>
<path d="M25.8784 9.79212C25.8784 9.96145 25.8784 10.3565 25.8595 10.5635H17.8825C18.1647 12.0874 19.2183 12.9528 20.9115 12.9528C22.1156 12.9528 23.188 12.5013 23.8841 11.6359L25.5209 13.0281C24.5802 14.3262 23.0751 15.1352 20.7234 15.1352C17.2805 15.1352 15.2486 13.0281 15.2486 9.7545C15.2486 6.49973 17.4498 4.37378 20.5917 4.37378C24.1287 4.37378 25.8784 6.63142 25.8784 9.79212ZM20.5917 6.53735C19.2747 6.53735 18.2212 7.19583 17.9013 8.68212H23.3385C23.188 7.55329 22.379 6.53735 20.5917 6.53735Z" fill="white"/>
<path d="M27.5716 14.9283V0.66748H30.1679V14.9283H27.5716Z" fill="white"/>
<path d="M37.0449 15.154C34.0347 15.154 32.0781 13.0657 32.0781 9.77331C32.0781 6.48091 34.0535 4.41141 36.932 4.41141C37.9856 4.41141 39.2461 4.71243 40.0927 5.54023V0.66748H42.6514V14.9283H40.1303V13.9311C39.3214 14.9095 38.042 15.154 37.0449 15.154ZM37.6093 12.8211C38.5876 12.8211 39.6036 12.426 40.1303 11.4665V8.06126C39.6036 7.21465 38.55 6.74431 37.5529 6.74431C35.9161 6.74431 34.7496 7.8355 34.7496 9.77331C34.7496 11.6735 35.8784 12.8211 37.6093 12.8211Z" fill="white"/>
</g>
</svg>
