<svg width="43" height="16" viewBox="0 0 43 16" fill="none" xmlns="http://www.w3.org/2000/svg">
<g id="Geld">
<path d="M7.32282 7.60974H13.9264V13.2162C12.5907 14.5144 10.5588 15.1917 8.18826 15.1917C3.57889 15.1917 0.68158 12.5389 0.68158 8.26822C0.68158 3.9975 3.57889 1.32596 7.90605 1.32596C10.3142 1.32596 12.1391 2.05969 13.4185 3.24496L11.7441 5.12633C10.841 4.33615 9.46759 3.82818 7.92486 3.82818C5.2345 3.82818 3.4472 5.54023 3.4472 8.26822C3.4472 11.0903 5.30976 12.7459 8.28232 12.7459C9.46759 12.7459 10.54 12.5389 11.4242 11.8804V9.94263H7.32282V7.60974Z" fill="white"/>
<path d="M25.8783 9.79212C25.8783 9.96145 25.8783 10.3565 25.8595 10.5635H17.8825C18.1647 12.0874 19.2182 12.9528 20.9115 12.9528C22.1156 12.9528 23.1879 12.5013 23.884 11.6359L25.5208 13.0281C24.5802 14.3262 23.0751 15.1352 20.7233 15.1352C17.2804 15.1352 15.2485 13.0281 15.2485 9.7545C15.2485 6.49973 17.4498 4.37378 20.5916 4.37378C24.1286 4.37378 25.8783 6.63142 25.8783 9.79212ZM20.5916 6.53735C19.2747 6.53735 18.2211 7.19583 17.9013 8.68212H23.3384C23.1879 7.55329 22.3789 6.53735 20.5916 6.53735Z" fill="white"/>
<path d="M27.5715 14.9283V0.66748H30.1678V14.9283H27.5715Z" fill="white"/>
<path d="M37.0448 15.154C34.0346 15.154 32.078 13.0657 32.078 9.77331C32.078 6.48091 34.0534 4.41141 36.9319 4.41141C37.9855 4.41141 39.246 4.71243 40.0927 5.54023V0.66748H42.6513V14.9283H40.1303V13.9311C39.3213 14.9095 38.042 15.154 37.0448 15.154ZM37.6092 12.8211C38.5876 12.8211 39.6035 12.426 40.1303 11.4665V8.06126C39.6035 7.21465 38.5499 6.74431 37.5528 6.74431C35.916 6.74431 34.7496 7.8355 34.7496 9.77331C34.7496 11.6735 35.8784 12.8211 37.6092 12.8211Z" fill="white"/>
</g>
</svg>
