<svg width="220" height="196" viewBox="0 0 220 196" fill="none" xmlns="http://www.w3.org/2000/svg">
<g id="Shape" opacity="0.5">
<path id="Ellipse 106" d="M196.175 41.087C205.369 51.9723 204.982 69.4446 196.526 89.1271C188.089 108.764 171.703 130.371 149.343 149.257C126.984 168.142 102.941 180.684 82.1689 185.717C61.3492 190.761 44.0584 188.22 34.8643 177.335C25.6702 166.45 26.0572 148.978 34.5132 129.295C42.9497 109.658 59.3361 88.051 81.6956 69.1655C104.055 50.2799 128.098 37.7384 148.87 32.7054C169.69 27.6607 186.981 30.2017 196.175 41.087Z" stroke="white" stroke-width="1.47658"/>
<path id="Ellipse 107" d="M199.986 45.5977C209.18 56.483 208.793 73.9553 200.337 93.6378C191.901 113.275 175.514 134.882 153.155 153.767C130.795 172.653 106.752 185.194 85.9804 190.227C65.1608 195.272 47.8699 192.731 38.6758 181.846C29.4817 170.961 29.8687 153.488 38.3247 133.806C46.7613 114.169 63.1476 92.5618 85.5071 73.6762C107.867 54.7906 131.91 42.2492 152.682 37.2161C173.501 32.1714 190.792 34.7124 199.986 45.5977Z" stroke="white" stroke-width="1.47658"/>
<path id="Ellipse 108" d="M203.799 50.1104C212.993 60.9957 212.606 78.468 204.15 98.1505C195.713 117.788 179.327 139.394 156.967 158.28C134.608 177.166 110.565 189.707 89.7929 194.74C68.9733 199.785 51.6824 197.244 42.4883 186.359C33.2942 175.473 33.6812 158.001 42.1372 138.318C50.5738 118.681 66.9601 97.0745 89.3196 78.1889C111.679 59.3033 135.722 46.7619 156.494 41.7288C177.314 36.6841 194.605 39.2251 203.799 50.1104Z" stroke="white" stroke-width="1.47658"/>
<path id="Ellipse 109" d="M207.609 54.6233C216.803 65.5087 216.416 82.9809 207.96 102.663C199.524 122.301 183.137 143.907 160.778 162.793C138.418 181.679 114.375 194.22 93.6034 199.253C72.7838 204.298 55.4929 201.757 46.2988 190.871C37.1047 179.986 37.4917 162.514 45.9478 142.831C54.3843 123.194 70.7707 101.587 93.1302 82.7018C115.49 63.8163 139.533 51.2748 160.305 46.2418C181.124 41.1971 198.415 43.738 207.609 54.6233Z" stroke="white" stroke-width="1.47658"/>
<path id="Ellipse 110" d="M211.42 59.1351C220.614 70.0204 220.227 87.4927 211.771 107.175C203.334 126.812 186.948 148.419 164.588 167.305C142.229 186.19 118.186 198.732 97.414 203.765C76.5943 208.809 59.3035 206.269 50.1094 195.383C40.9153 184.498 41.3023 167.026 49.7583 147.343C58.1949 127.706 74.5812 106.099 96.9407 87.2136C119.3 68.328 143.344 55.7865 164.115 50.7535C184.935 45.7088 202.226 48.2498 211.42 59.1351Z" stroke="white" stroke-width="1.47658"/>
<path id="Ellipse 111" d="M215.231 63.6468C224.425 74.5321 224.038 92.0044 215.582 111.687C207.146 131.324 190.759 152.931 168.4 171.816C146.04 190.702 121.997 203.243 101.226 208.277C80.4059 213.321 63.115 210.78 53.9209 199.895C44.7268 189.01 45.1138 171.537 53.5698 151.855C62.0064 132.218 78.3928 110.611 100.752 91.7253C123.112 72.8397 147.155 60.2983 167.927 55.2652C188.746 50.2205 206.037 52.7615 215.231 63.6468Z" stroke="white" stroke-width="1.47658"/>
<path id="Ellipse 112" d="M219.042 68.1597C228.236 79.045 227.849 96.5173 219.393 116.2C210.956 135.837 194.57 157.444 172.21 176.329C149.851 195.215 125.808 207.756 105.036 212.789C84.2164 217.834 66.9255 215.293 57.7314 204.408C48.5374 193.523 48.9244 176.05 57.3804 156.368C65.8169 136.731 82.2033 115.124 104.563 96.2382C126.922 77.3526 150.966 64.8112 171.737 59.7781C192.557 54.7334 209.848 57.2744 219.042 68.1597Z" stroke="white" stroke-width="1.47658"/>
<path id="Ellipse 113" d="M222.853 72.6724C232.047 83.5577 231.66 101.03 223.204 120.713C214.768 140.35 198.382 161.957 176.022 180.842C153.663 199.728 129.619 212.269 108.848 217.302C88.0279 222.347 70.7371 219.806 61.543 208.921C52.3489 198.035 52.7359 180.563 61.1919 160.88C69.6285 141.243 86.0148 119.636 108.374 100.751C130.734 81.8653 154.777 69.3239 175.549 64.2908C196.368 59.2461 213.659 61.7871 222.853 72.6724Z" stroke="white" stroke-width="1.47658"/>
<path id="Ellipse 114" d="M226.665 77.1841C235.859 88.0694 235.472 105.542 227.016 125.224C218.579 144.861 202.193 166.468 179.834 185.354C157.474 204.239 133.431 216.781 112.659 221.814C91.8395 226.859 74.5486 224.318 65.3545 213.432C56.1604 202.547 56.5474 185.075 65.0034 165.392C73.44 145.755 89.8264 124.148 112.186 105.263C134.545 86.377 158.589 73.8356 179.36 68.8026C200.18 63.7579 217.471 66.2988 226.665 77.1841Z" stroke="white" stroke-width="1.47658"/>
<path id="Ellipse 115" d="M230.474 81.6961C239.669 92.5814 239.282 110.054 230.826 129.736C222.389 149.373 206.003 170.98 183.643 189.866C161.284 208.751 137.24 221.293 116.469 226.326C95.649 231.371 78.3582 228.83 69.1641 217.944C59.97 207.059 60.357 189.587 68.813 169.904C77.2495 150.267 93.6359 128.66 115.995 109.775C138.355 90.889 162.398 78.3476 183.17 73.3145C203.989 68.2698 221.28 70.8108 230.474 81.6961Z" stroke="white" stroke-width="1.47658"/>
<path id="Ellipse 116" d="M234.287 86.2088C243.481 97.0941 243.094 114.566 234.638 134.249C226.201 153.886 209.815 175.493 187.456 194.378C165.096 213.264 141.053 225.805 120.281 230.839C99.4615 235.883 82.1707 233.342 72.9766 222.457C63.7825 211.572 64.1695 194.099 72.6255 174.417C81.062 154.78 97.4484 133.173 119.808 114.287C142.167 95.4017 166.211 82.8603 186.982 77.8272C207.802 72.7825 225.093 75.3235 234.287 86.2088Z" stroke="white" stroke-width="1.47658"/>
<path id="Ellipse 117" d="M238.098 90.7205C247.292 101.606 246.905 119.078 238.449 138.761C230.012 158.398 213.626 180.005 191.266 198.89C168.907 217.776 144.863 230.317 124.092 235.35C103.272 240.395 85.9812 237.854 76.7871 226.969C67.593 216.083 67.98 198.611 76.4361 178.929C84.8726 159.291 101.259 137.685 123.618 118.799C145.978 99.9134 170.021 87.372 190.793 82.3389C211.613 77.2942 228.903 79.8352 238.098 90.7205Z" stroke="white" stroke-width="1.47658"/>
<path id="Ellipse 118" d="M241.908 95.2325C251.102 106.118 250.715 123.59 242.259 143.273C233.823 162.91 217.436 184.517 195.077 203.402C172.717 222.288 148.674 234.829 127.902 239.862C107.083 244.907 89.7918 242.366 80.5977 231.481C71.4036 220.595 71.7906 203.123 80.2466 183.441C88.6831 163.803 105.07 142.197 127.429 123.311C149.789 104.425 173.832 91.884 194.603 86.8509C215.423 81.8062 232.714 84.3472 241.908 95.2325Z" stroke="white" stroke-width="1.47658"/>
<path id="Ellipse 119" d="M245.721 99.7452C254.915 110.63 254.528 128.103 246.072 147.785C237.635 167.422 221.249 189.029 198.889 207.915C176.53 226.8 152.486 239.342 131.715 244.375C110.895 249.42 93.6043 246.879 84.4102 235.993C75.2161 225.108 75.6031 207.636 84.0591 187.953C92.4956 168.316 108.882 146.709 131.242 127.824C153.601 108.938 177.644 96.3966 198.416 91.3636C219.236 86.3189 236.526 88.8599 245.721 99.7452Z" stroke="white" stroke-width="1.47658"/>
<path id="Ellipse 120" d="M249.532 104.258C258.726 115.143 258.339 132.616 249.883 152.298C241.447 171.935 225.06 193.542 202.701 212.428C180.341 231.313 156.298 243.855 135.526 248.888C114.707 253.933 97.4158 251.392 88.2217 240.506C79.0276 229.621 79.4146 212.149 87.8706 192.466C96.3072 172.829 112.694 151.222 135.053 132.337C157.413 113.451 181.456 100.91 202.227 95.8765C223.047 90.8318 240.338 93.3728 249.532 104.258Z" stroke="white" stroke-width="1.47658"/>
</g>
</svg>
